<svg width="31" height="31" viewBox="0 0 31 31" fill="none" xmlns="http://www.w3.org/2000/svg">
<path d="M3.888 14.4924V20.292C3.888 26.0915 6.21298 28.4165 12.0125 28.4165H18.9745C24.7741 28.4165 27.099 26.0915 27.099 20.292V14.4924" stroke="#F4F4F5" stroke-width="1.5" stroke-linecap="round" stroke-linejoin="round"/>
<path d="M15.4999 15.5007C17.8636 15.5007 19.6074 13.5761 19.3749 11.2124L18.5224 2.58415H12.4904L11.625 11.2124C11.3925 13.5761 13.1362 15.5007 15.4999 15.5007Z" stroke="#F4F4F5" stroke-width="1.5" stroke-linecap="round" stroke-linejoin="round"/>
<path d="M23.6502 15.5007C26.2594 15.5007 28.171 13.3824 27.9127 10.7862L27.551 7.23411C27.086 3.87581 25.7944 2.58415 22.4102 2.58415H18.4707L19.3749 11.6387C19.5944 13.7699 21.519 15.5007 23.6502 15.5007Z" stroke="#F4F4F5" stroke-width="1.5" stroke-linecap="round" stroke-linejoin="round"/>
<path d="M7.28499 15.5007C9.41622 15.5007 11.3408 13.7699 11.5475 11.6387L11.8316 8.7841L12.4516 2.58415H8.51207C5.12793 2.58415 3.83627 3.87581 3.37128 7.23411L3.02253 10.7862C2.7642 13.3824 4.67585 15.5007 7.28499 15.5007Z" stroke="#F4F4F5" stroke-width="1.5" stroke-linecap="round" stroke-linejoin="round"/>
<path d="M15.4994 21.9584C13.3424 21.9584 12.2703 23.0305 12.2703 25.1876V28.4167H18.7286V25.1876C18.7286 23.0305 17.6565 21.9584 15.4994 21.9584Z" stroke="#F4F4F5" stroke-width="1.5" stroke-linecap="round" stroke-linejoin="round"/>
</svg>
